<svg xmlns="http://www.w3.org/2000/svg" xmlns:i="http://ns.adobe.com/AdobeIllustrator/10.0/" version="1.1" viewBox="0 0 540 540">
  <defs>
    <style>
      .cls-1 {
        fill: #ffb92a;
      }
      .cls-2 {
        fill-rule: evenodd;
        fill: #ffb92a;
      }
      .cls-3 {
        fill: #161617;
      }
    </style>
  </defs>
  <!-- Generator: Adobe Illustrator 28.6.0, SVG Export Plug-In . SVG Version: 1.2.0 Build 709)  -->
  <g>
    <g id="Layer_1">
      <g>
        <path class="cls-2" d="M535.14,452.57c0,45.6-36.97,82.57-82.57,82.57H86.77c-45.24,0-81.91-36.67-81.91-81.91V83.82C4.86,40.21,40.21,4.86,83.82,4.86h372.36c43.61,0,78.96,35.35,78.96,78.95v368.76Z"></path>
        <g>
          <path class="cls-3" d="M189.58,195.82l-23.22,5.17v18.86l-13.13,2.95-.23,20.38,13.14-2.95-.08,52.94c0,17.65,11.46,26.3,24.74,23.22,4.78-1.07,8.27-2.19,14.07-4.93l-.06-19.14c-2.49.95-4.67,1.64-7.4,2.25-6.99,1.57-8.08-2.29-8.19-8.52l.12-51.03,16.55-3.72.23-20.38-16.53,3.72v-18.82Z"></path>
          <path class="cls-3" d="M248.61,199.59c-35.3,7.91-42.01,46.3-37.68,72.06,3.95,23.5,18.35,37.25,42.17,31.91,26.56-5.96,35-25.6,37.53-41.19l-24.33,5.46c-1.84,7.05-5.04,13.42-14.63,15.57-10.45,2.34-15.54-5.69-17.27-16.03-.35-2.07-.29-3.84-.3-5.98l56.9-12.76c.46-5.76.53-11.63-.79-19.53-3.35-19.93-15.54-35.34-41.59-29.5ZM234.31,243.57c.97-13.29,6.22-22.27,16.84-24.65,10.28-2.31,14.94,4.26,16.36,12.72.19,1.13.44,2.63.38,4.4l-33.59,7.53Z"></path>
          <path class="cls-3" d="M324.15,202.78c.05-8.22-.48-15.72-.78-18.2l-22.39,5.02v101.24l23.2-5.21.21-42c.09-22.1,7.89-33.37,24.06-37.2v-26.71c-15.35,3.45-20.52,10.1-24.29,23.06Z"></path>
          <path class="cls-3" d="M491.35,213.77c-1.77,10.36-6.17,16.24-13.85,17.96-8.36,1.88-14.44-3.01-16.99-16.51-2.94-15.56-1.57-44.01,14.81-47.69,10.4-2.34,14.08,4.85,15.67,12.31l22.52-5.06c-1.15-12.64-12.53-33.34-41.19-26.91-32.75,7.35-40.79,45.7-35.47,73.82,4.4,23.24,18.9,35.04,41.25,30.02,26.1-5.86,35.17-23.73,36.47-43.17l-23.2,5.21Z"></path>
          <path class="cls-3" d="M426.91,243.13v-48.02c.16-26.42-17.71-32.79-39.2-27.97-27.46,6.17-34.58,21.89-34.87,38.18l23.71-5.32c.99-5.11,1.57-12.13,12.66-14.62,12.45-2.8,14.15,6.2,14.31,13.59l.34,6.07c-6.76,1.71-12.76,2.78-19.9,4.6-19.82,5.05-39.19,18.16-34.08,45.15,2.16,11.43,12.05,23.29,29.45,19.38,16.38-3.68,20.9-11.73,24.2-18.72.7,3.26,2.3,7.88,3.91,10.78l23.29-5.26.13-.03s-1.53-1.86-2.46-5.81c-.92-3.9-1.49-12-1.49-12ZM403.45,223.03c-.27,10.81-1.67,25.97-17.7,29.57-7.51,1.69-11.56-1.9-12.63-7.52-1.56-8.25,2.67-14.08,15.21-19.24,4.5-1.6,9.38-3.08,15.17-4.39l-.06,1.58Z"></path>
        </g>
        <g>
          <path class="cls-3" d="M77.38,477.2c-3.31,0-6-2.69-6-6,0-.28,0-.33.58-11.9.21-4.27.48-9.56.64-12.99-2.01.4-4.45.89-6.84,1.38-5.08,1.03-10.33,2.1-13.4,2.63-.39.07-.78.1-1.2.1-.1,0-.21,0-.34,0-1.96,0-3.83-.95-4.95-2.56-1.12-1.6-1.44-3.65-.77-5.49l2.85-7.87-27.98-22.61c-.27-.21-.51-.43-.79-.69l-.3-.27c-1.52-1.34-2.27-3.35-1.98-5.35.28-2,1.56-3.73,3.39-4.59l3.84-1.8-4.68-14.34c-.12-.35-.21-.72-.32-1.14l-.11-.41c-.55-2.02,0-4.17,1.43-5.69,1.15-1.21,2.73-1.88,4.36-1.88.41,0,.83.04,1.24.13l14.73,3.11c.43-1.02,2.29-5.38,2.29-5.38.85-2.01,2.73-3.4,4.91-3.62.21-.02.41-.03.61-.03,1.95,0,3.8.95,4.93,2.58.15.22.28.42.4.6,0,0,2.57,2.76,3.86,4.14l-2.88-14.76c-.29-1.5-.58-3-.88-4.58l-.42-2.2c-.43-2.26.47-4.57,2.32-5.95,1.05-.78,2.31-1.18,3.58-1.18.95,0,1.91.23,2.79.69l.45.24c.36.18.65.33.93.5l6.09,3.51,8.49-16.63c.15-.29.31-.58.5-.92l.23-.41c1.06-1.91,3.07-3.1,5.25-3.1s4.2,1.19,5.25,3.1l.23.41c.19.33.35.62.5.91l8.5,16.64,6.08-3.5c.29-.17.58-.32.94-.5l.45-.24c.88-.46,1.83-.69,2.79-.69,1.26,0,2.52.4,3.58,1.18,1.85,1.37,2.75,3.68,2.32,5.95,0,0-1.01,5.28-1.3,6.78l-2.88,14.76c1.29-1.38,3.86-4.14,3.86-4.14.12-.18.24-.37.4-.59,1.13-1.63,2.98-2.58,4.93-2.58.2,0,.41.01.61.03,2.17.22,4.05,1.61,4.91,3.62,0,0,1.9,4.46,2.29,5.39l14.73-3.11c.41-.09.83-.13,1.24-.13,1.63,0,3.21.67,4.36,1.88,1.44,1.52,1.98,3.67,1.43,5.69l-.11.41c-.11.42-.21.79-.33,1.15l-4.68,14.34,3.84,1.8c1.83.86,3.11,2.58,3.39,4.59.28,2-.46,4.02-1.98,5.35l-.3.26c-.28.25-.53.48-.79.69l-27.99,22.62,2.85,7.87c.67,1.84.39,3.89-.73,5.49s-2.96,2.55-4.91,2.55c-.21,0-.32,0-.43,0-.42,0-.81-.03-1.2-.1-3.07-.54-8.32-1.61-13.4-2.64-2.39-.49-4.83-.98-6.84-1.38.17,3.43.43,8.72.65,13,.58,11.56.58,11.62.58,11.89,0,3.31-2.69,6-6,6h-13.67Z"></path>
          <path class="cls-1" d="M84.21,338.43c.26.48.46.81.64,1.16,3.33,6.51,6.65,13.02,9.97,19.53.64,1.26,1.29,1.86,2.15,1.86.52,0,1.12-.22,1.84-.63,2.98-1.72,5.96-3.44,8.93-5.15.32-.19.66-.35,1.19-.62-.47,2.43-.88,4.6-1.3,6.76-1.79,9.2-3.58,18.4-5.37,27.59-.22,1.13.19,2.07,1.09,2.55.33.18.67.27,1,.27.59,0,1.17-.27,1.71-.81.18-.18.36-.38.53-.57,4.16-4.46,8.33-8.92,12.49-13.38.24-.26.41-.59.74-1.05,1.18,2.78,2.22,5.22,3.26,7.66.59,1.37,1.14,1.91,2.2,1.91.33,0,.72-.05,1.17-.15,1.74-.37,3.47-.73,5.21-1.1,3.93-.83,7.86-1.66,11.94-2.52-.14.51-.22.89-.34,1.26-1.83,5.61-3.66,11.22-5.49,16.83-.65,1.99-.29,2.8,1.62,3.7,2.03.95,4.06,1.91,6.19,2.9-.36.32-.63.57-.91.8-9.84,7.95-19.68,15.9-29.51,23.85-1.53,1.23-1.68,1.76-1.01,3.63,1.15,3.19,2.31,6.38,3.52,9.71-.19,0-.32,0-.42,0-.06,0-.11,0-.16-.01-6.04-1.06-21.47-4.36-24.65-4.83-.23-.03-.44-.05-.63-.05-1.76,0-2.2,1.36-2.16,3.41.02,1.11,1.38,27.85,1.38,28.26h-13.67c0-.41,1.36-27.16,1.38-28.26.04-2.05-.39-3.41-2.16-3.41-.19,0-.41.02-.63.05-3.18.47-18.61,3.77-24.65,4.83-.05,0-.1.01-.16.01-.1,0-.23,0-.42,0,1.21-3.33,2.37-6.52,3.52-9.71.67-1.87.52-2.4-1.01-3.63-9.84-7.95-19.68-15.9-29.51-23.85-.28-.23-.55-.48-.91-.8,2.13-1,4.16-1.95,6.19-2.9,1.91-.89,2.27-1.71,1.62-3.7-1.83-5.61-3.66-11.22-5.49-16.83-.12-.37-.21-.75-.34-1.26,4.08.86,8.01,1.69,11.94,2.52,1.74.37,3.47.73,5.21,1.1.45.1.84.15,1.17.15,1.07,0,1.62-.54,2.2-1.91,1.04-2.44,2.08-4.88,3.26-7.66.32.47.5.79.74,1.05,4.16,4.47,8.32,8.92,12.49,13.38.18.19.35.38.53.57.55.54,1.13.81,1.71.81.33,0,.67-.09,1-.27.9-.48,1.31-1.42,1.09-2.55-1.79-9.2-3.58-18.4-5.37-27.59-.42-2.17-.83-4.34-1.3-6.76.52.27.86.44,1.19.62,2.98,1.72,5.96,3.44,8.93,5.15.73.42,1.32.63,1.84.63.86,0,1.51-.6,2.15-1.86,3.33-6.51,6.65-13.02,9.97-19.53.18-.35.38-.69.64-1.16M84.21,326.43c-4.37,0-8.39,2.38-10.51,6.2l-.2.36c-.23.42-.43.78-.62,1.14l-5.07,9.93-.55,1.08c-.2-.12-.41-.23-.61-.35-.37-.21-.75-.41-1.21-.65l-.4-.21c-1.75-.92-3.66-1.37-5.57-1.37-2.53,0-5.05.8-7.16,2.37-3.7,2.75-5.5,7.37-4.63,11.89l.43,2.23c.3,1.58.59,3.07.88,4.56l.06.31c-.16,0-.32,0-.48,0-.41,0-.81.02-1.22.06-4.35.45-8.11,3.22-9.82,7.24l-.36.84-.55-.12-9.35-1.98c-.82-.17-1.66-.26-2.48-.26-3.26,0-6.43,1.33-8.72,3.76-2.87,3.04-3.95,7.35-2.86,11.38l.09.34c.1.38.23.9.43,1.5,1.02,3.12,2.03,6.23,3.05,9.35-3.15,1.84-5.32,5.03-5.84,8.68-.57,4.01.92,8.03,3.96,10.7l.25.22c.27.24.61.55,1.04.89,8.22,6.64,16.44,13.28,24.66,19.93-.09.24-.17.48-.26.72l-1.13,3.13c-1.33,3.68-.79,7.78,1.46,10.98,2.23,3.18,5.86,5.08,9.73,5.11.21,0,.37,0,.52,0,.78,0,1.53-.07,2.28-.2,2.96-.52,7.91-1.52,12.79-2.51-.09,1.81-.18,3.63-.26,5.29-.58,11.71-.58,11.73-.58,12.19,0,6.63,5.37,12,12,12h13.67c6.63,0,12-5.37,12-12,0-.47,0-.48-.58-12.19-.08-1.67-.17-3.49-.26-5.29,4.89.99,9.83,1.99,12.83,2.52.71.13,1.46.19,2.24.19.15,0,.32,0,.52,0,3.88-.03,7.5-1.93,9.73-5.11,2.25-3.2,2.79-7.3,1.46-10.98l-1.13-3.13c-.09-.24-.17-.48-.26-.72,8.22-6.64,16.44-13.28,24.66-19.93.42-.34.76-.65,1.04-.89l.25-.22c3.04-2.67,4.53-6.7,3.96-10.7-.52-3.65-2.68-6.84-5.84-8.68,1.02-3.12,2.03-6.23,3.05-9.35.2-.6.33-1.12.43-1.5l.09-.34c1.09-4.03,0-8.34-2.86-11.38-2.29-2.42-5.46-3.76-8.72-3.76-.82,0-1.66.09-2.48.26l-9.35,1.98-.55.12-.36-.84c-1.71-4.02-5.47-6.8-9.82-7.24-.41-.04-.82-.06-1.22-.06-.16,0-.32,0-.48,0l.06-.31c.29-1.49.58-2.99.88-4.56l.43-2.23c.87-4.52-.93-9.15-4.63-11.89-2.11-1.57-4.63-2.37-7.16-2.37-1.9,0-3.81.45-5.57,1.37l-.4.21c-.47.24-.84.43-1.2.64-.21.12-.41.24-.62.36l-.55-1.08-5.07-9.93c-.19-.36-.38-.72-.62-1.14l-.2-.36c-2.11-3.83-6.14-6.2-10.51-6.2h0Z"></path>
        </g>
        <path class="cls-3" d="M73.71,332.63c2.11-3.83,6.14-6.2,10.51-6.2s8.14,2.25,10.3,5.88v-8.24s0,0,0,0v-39.25c.18-18.8,5.57-29.78,16.83-32.31,9.89-2.22,13.6,5.15,13.44,16.53v61.39l22.91-5.17.16-61.2c.2-29.95-11.89-39.35-29.29-35.44-14.84,3.33-23.95,20.04-23.95,20.04v-12.56l-23.34,5.09v96.12l2.44-4.67Z"></path>
        <polygon class="cls-3" points="54.89 211.25 54.89 346.01 30.84 351.41 30.84 216.65 54.89 211.25"></polygon>
      </g>
    </g>
  </g>
</svg>