<svg width="4000" height="709" viewBox="0 0 4000 709" fill="none" xmlns="http://www.w3.org/2000/svg">
<path d="M2019.15 169.126C2019.15 240.249 2078.12 292.274 2153.04 292.274C2227.95 292.274 2286.99 240.249 2286.99 169.126V5.72329H2214.45V160.702C2214.45 199.093 2187.83 224.945 2152.84 224.945C2117.86 224.945 2091.24 199.222 2091.24 160.702V5.72329H2018.7L2019.15 169.126ZM2480.81 71.1231H2567.36V286.872H2639.9V71.1231H2726.46V5.59464H2480.81V71.1231ZM2433.93 5.59464H2361.39V286.872H2433.93V5.59464ZM1726.1 71.1231H1812.66V286.872H1885.2V71.1231H1971.69V5.59464H1726.1V71.1231ZM1345.54 5.59464H1273V286.872H1345.54V5.59464ZM1687.91 123.083C1687.91 51.9597 1628.94 0 1553.96 0C1478.97 0 1420 51.9597 1420 123.083V286.872H1492.54V131.893C1492.54 93.5018 1519.17 67.6505 1554.15 67.6505C1589.13 67.6505 1615.75 93.3732 1615.75 131.893V286.872H1688.29L1687.84 123.083H1687.91Z" fill="#236CFF"/>
<path d="M2109.82 690.911C2153.75 690.911 2189.37 655.297 2189.37 611.364C2189.37 567.431 2153.75 531.816 2109.82 531.816C2065.89 531.816 2030.27 567.431 2030.27 611.364C2030.27 655.297 2065.89 690.911 2109.82 690.911Z" fill="#2CA01C"/>
<path d="M2052.5 611.362C2052.5 628.189 2066.19 641.624 2083.33 641.624H2087.72V630.386H2083.33C2072.78 630.386 2063.99 621.785 2063.99 611.362C2063.99 600.94 2072.78 592.339 2083.33 592.339H2093.87V651.168C2093.87 657.258 2099.15 662.406 2105.36 662.406V581.038H2083.33C2066.19 581.038 2052.5 594.474 2052.5 611.3V611.362ZM2136.25 581.101H2131.86V592.339H2136.25C2146.8 592.339 2155.59 600.94 2155.59 611.362C2155.59 621.785 2146.8 630.386 2136.25 630.386H2125.71V571.62C2125.71 565.53 2120.43 560.382 2114.22 560.382V641.687H2136.25C2153.39 641.687 2167.08 628.251 2167.08 611.425C2167.08 594.599 2153.39 581.163 2136.25 581.163V581.101Z" fill="white"/>
<path d="M2286.87 707.483H2268.92V662.843H2268.67C2264.02 669.938 2254.92 674.333 2244.87 674.333C2223.02 674.333 2209.52 657.256 2209.52 636.725C2209.52 616.195 2223.9 599.683 2244.43 599.683C2257.62 599.683 2265.65 606.024 2269.29 611.612H2269.73V601.755H2287V707.608H2286.87V707.483ZM2248.39 659.516C2261.57 659.516 2269.48 647.901 2269.48 636.851C2269.48 625.801 2261.57 613.935 2248.39 613.935C2234.45 613.935 2227.67 625.55 2227.67 636.6C2227.67 647.65 2234.39 659.516 2248.39 659.516Z" fill="black"/>
<path d="M2370.75 672.199H2353.68V660.898H2353.42C2350.29 667.993 2341.75 674.271 2331.07 674.271C2312.36 674.271 2304.52 660.145 2304.52 645.767V601.63H2322.47V640.744C2322.47 649.095 2324.42 659.58 2335.97 659.58C2347.52 659.58 2352.73 649.848 2352.73 640.493V601.693H2370.75V672.262V672.199Z" fill="black"/>
<path d="M2389.02 601.63H2407.04V672.199H2389.02V601.63Z" fill="black"/>
<path d="M2474.09 621.219C2471.27 617.264 2465.12 614.313 2459.22 614.313C2446.03 614.313 2439.44 625.928 2439.44 636.978C2439.44 648.028 2446.16 659.643 2459.78 659.643C2465.37 659.643 2471.46 657.446 2474.91 653.302L2486.09 664.478C2480.12 670.819 2470.2 674.335 2459.53 674.335C2438.31 674.335 2420.54 660.522 2420.54 637.041C2420.54 613.56 2437.93 599.747 2459.03 599.747C2469.57 599.747 2480.5 603.891 2486.09 610.734L2473.78 621.345L2473.97 621.219H2474.09Z" fill="black"/>
<path d="M2495.38 561.134H2513.4V631.389H2513.84L2541.15 601.693H2564.25L2533.11 633.587L2566.26 672.262H2542.47L2514.03 636.098H2513.59V672.262H2495.57V561.071H2495.44L2495.38 561.134Z" fill="black"/>
<path d="M2592.44 561.136V610.672H2592.95C2596.65 606.089 2603.87 599.685 2617.05 599.685C2637.52 599.685 2651.96 615.883 2651.96 636.728C2651.96 657.572 2638.46 674.335 2616.61 674.335C2606.57 674.335 2596.84 669.752 2591.94 661.716H2591.69V672.326H2574.61V561.136H2592.44ZM2612.97 614C2599.79 614 2591.88 625.929 2591.88 636.916C2591.88 647.903 2599.79 659.581 2612.97 659.581C2626.91 659.581 2633.69 647.715 2633.69 636.665C2633.69 625.615 2626.97 614 2612.97 614Z" fill="black"/>
<path d="M2701.18 599.622C2722.91 599.622 2740.3 614.439 2740.3 636.665C2740.3 658.89 2722.91 674.272 2701.18 674.272C2679.46 674.272 2662.07 658.827 2662.07 636.665C2662.07 614.502 2679.46 599.622 2701.18 599.622ZM2701.18 659.581C2715.44 659.581 2722.03 647.715 2722.03 636.665C2722.03 625.615 2715.44 614 2701.18 614C2686.93 614 2680.34 625.615 2680.34 636.665C2680.34 647.715 2686.93 659.581 2701.18 659.581Z" fill="black"/>
<path d="M2789.08 599.622C2810.81 599.622 2828.2 614.439 2828.2 636.665C2828.2 658.89 2810.81 674.272 2789.08 674.272C2767.36 674.272 2749.97 658.827 2749.97 636.665C2749.97 614.502 2767.36 599.622 2789.08 599.622ZM2789.08 659.581C2803.34 659.581 2809.93 647.715 2809.93 636.665C2809.93 625.615 2803.34 614 2789.08 614C2774.83 614 2768.24 625.615 2768.24 636.665C2768.24 647.715 2774.83 659.581 2789.08 659.581Z" fill="black"/>
<path d="M2842.32 561.134H2860.34V631.389H2860.84L2888.16 601.693H2911.26L2880.12 633.587L2913.27 672.262H2889.47L2861.03 636.098H2860.53V672.262H2842.51V561.071H2842.39L2842.32 561.134Z" fill="black"/>
<path d="M2962.18 620.466C2959.04 616.322 2953.01 612.869 2946.42 612.869C2940.71 612.869 2934.87 614.878 2934.87 620.466C2934.87 626.054 2940.46 627.372 2950.5 629.695C2961.18 632.206 2973.73 636.915 2973.73 650.728C2973.73 667.931 2959.48 674.272 2943.78 674.272C2932.73 674.272 2921.18 670.128 2914.28 662.657L2926.08 651.795C2929.97 656.755 2936.75 660.648 2944.47 660.648C2949.69 660.648 2956.03 658.576 2956.03 652.297C2956.03 646.459 2950.44 644.701 2939.51 642.189C2928.84 639.678 2918.29 635.471 2918.29 622.224C2918.29 606.528 2932.67 599.747 2946.92 599.747C2957.22 599.747 2968.02 603.263 2973.86 610.483L2962.18 620.591V620.466Z" fill="black"/>
<path d="M3210.8 693.045C3254.74 693.045 3290.35 657.43 3290.35 613.498C3290.35 569.565 3254.74 533.95 3210.8 533.95C3166.87 533.95 3131.26 569.565 3131.26 613.498C3131.26 657.43 3166.87 693.045 3210.8 693.045Z" fill="#FFE01B"/>
<path d="M3234.69 614.02C3235.51 613.92 3236.29 613.92 3237.01 614.02C3237.43 613.066 3237.5 611.416 3237.13 609.624C3236.57 606.956 3235.81 605.343 3234.26 605.596C3232.7 605.849 3232.65 607.779 3233.2 610.446C3233.51 611.943 3234.07 613.229 3234.69 614.02Z" fill="black"/>
<path d="M3221.33 616.127C3222.44 616.618 3223.12 616.939 3223.39 616.66C3223.57 616.481 3223.51 616.148 3223.24 615.711C3222.7 614.815 3221.56 613.903 3220.36 613.391C3217.9 612.337 3214.98 612.685 3212.72 614.309C3211.98 614.857 3211.27 615.611 3211.37 616.069C3211.4 616.217 3211.52 616.328 3211.78 616.365C3212.4 616.433 3214.54 615.347 3217.01 615.2C3218.76 615.094 3220.21 615.637 3221.32 616.127H3221.33Z" fill="black"/>
<path d="M3219.08 617.404C3217.63 617.631 3216.83 618.11 3216.31 618.558C3215.88 618.943 3215.6 619.365 3215.61 619.665C3215.61 619.808 3215.67 619.887 3215.72 619.929C3215.79 619.987 3215.86 620.019 3215.96 620.019C3216.28 620.019 3217.01 619.723 3217.01 619.723C3219.03 619.001 3220.37 619.085 3221.69 619.238C3222.41 619.323 3222.76 619.365 3222.92 619.117C3222.97 619.043 3223.02 618.89 3222.88 618.653C3222.53 618.1 3221.07 617.172 3219.07 617.409L3219.08 617.404Z" fill="black"/>
<path d="M3230.17 622.1C3231.16 622.585 3232.25 622.395 3232.6 621.673C3232.95 620.956 3232.44 619.981 3231.46 619.496C3230.47 619.011 3229.38 619.201 3229.03 619.923C3228.68 620.64 3229.19 621.615 3230.17 622.1Z" fill="black"/>
<path d="M3236.52 616.566C3235.71 616.55 3235.05 617.43 3235.03 618.527C3235.01 619.623 3235.65 620.525 3236.45 620.54C3237.25 620.556 3237.92 619.676 3237.93 618.579C3237.96 617.483 3237.32 616.581 3236.52 616.566Z" fill="black"/>
<path d="M3182.74 636.361C3182.54 636.113 3182.21 636.187 3181.9 636.261C3181.67 636.313 3181.42 636.371 3181.15 636.366C3180.56 636.355 3180.06 636.102 3179.78 635.675C3179.42 635.117 3179.44 634.278 3179.84 633.324C3179.89 633.198 3179.96 633.05 3180.03 632.897C3180.67 631.458 3181.75 629.044 3180.54 626.751C3179.63 625.022 3178.15 623.946 3176.37 623.72C3174.66 623.503 3172.9 624.136 3171.78 625.375C3170.01 627.331 3169.73 629.987 3170.07 630.926C3170.2 631.268 3170.39 631.363 3170.54 631.384C3170.84 631.427 3171.28 631.205 3171.56 630.457C3171.59 630.404 3171.61 630.32 3171.64 630.214C3171.77 629.819 3172 629.075 3172.38 628.485C3172.83 627.768 3173.55 627.278 3174.38 627.099C3175.24 626.914 3176.11 627.078 3176.84 627.557C3178.07 628.369 3178.55 629.887 3178.02 631.342C3177.75 632.091 3177.3 633.525 3177.4 634.705C3177.6 637.093 3179.07 638.048 3180.38 638.153C3181.66 638.2 3182.56 637.484 3182.79 636.956C3182.92 636.645 3182.81 636.456 3182.73 636.377L3182.74 636.361Z" fill="black"/>
<path d="M3256.72 632.001C3256.67 631.827 3256.35 630.667 3255.91 629.265C3255.48 627.863 3255.02 626.877 3255.02 626.877C3256.77 624.257 3256.8 621.911 3256.57 620.583C3256.33 618.938 3255.64 617.53 3254.26 616.081C3252.88 614.631 3250.05 613.144 3246.08 612.032C3245.63 611.906 3244.13 611.494 3244 611.452C3243.99 611.368 3243.89 606.539 3243.8 604.467C3243.74 602.97 3243.6 600.63 3242.88 598.326C3242.02 595.211 3240.51 592.48 3238.63 590.735C3243.82 585.358 3247.06 579.433 3247.05 574.346C3247.04 564.572 3235.03 561.615 3220.24 567.741C3220.22 567.746 3217.13 569.059 3217.1 569.069C3217.08 569.053 3211.43 563.508 3211.35 563.434C3194.47 548.731 3141.74 607.351 3158.6 621.589L3162.29 624.71C3161.33 627.188 3160.95 630.024 3161.26 633.076C3161.66 636.993 3163.68 640.752 3166.96 643.651C3170.07 646.408 3174.16 648.147 3178.12 648.147C3184.68 663.266 3199.68 672.544 3217.25 673.066C3236.11 673.625 3251.94 664.779 3258.57 648.885C3259 647.768 3260.85 642.744 3260.85 638.306C3260.85 633.867 3258.33 632.001 3256.72 632.001H3256.72ZM3179.57 643.904C3178.99 644.004 3178.41 644.041 3177.82 644.025C3172.13 643.872 3165.98 638.743 3165.36 632.665C3164.69 625.944 3168.12 620.772 3174.21 619.544C3174.93 619.396 3175.81 619.312 3176.76 619.36C3180.16 619.544 3185.19 622.164 3186.33 629.581C3187.35 636.155 3185.73 642.844 3179.57 643.899L3179.57 643.904ZM3173.2 615.527C3169.42 616.265 3166.08 618.411 3164.04 621.373C3162.82 620.356 3160.55 618.39 3160.15 617.62C3156.89 611.436 3163.7 599.412 3168.46 592.622C3180.23 575.832 3198.64 563.133 3207.17 565.437C3208.55 565.827 3213.15 571.151 3213.15 571.151C3213.15 571.151 3204.62 575.88 3196.72 582.469C3186.07 590.667 3178.03 602.586 3173.21 615.517L3173.2 615.527ZM3232.98 641.395C3233.1 641.342 3233.19 641.2 3233.18 641.063C3233.16 640.889 3233 640.762 3232.84 640.783C3232.84 640.783 3223.92 642.106 3215.49 639.017C3216.4 636.033 3218.84 637.109 3222.53 637.409C3229.19 637.805 3235.14 636.835 3239.55 635.57C3243.37 634.473 3248.38 632.312 3252.28 629.244C3253.59 632.127 3254.05 635.306 3254.05 635.306C3254.05 635.306 3255.07 635.121 3255.92 635.649C3256.72 636.144 3257.31 637.172 3256.91 639.824C3256.09 644.784 3253.98 648.812 3250.44 652.512C3248.28 654.832 3245.66 656.856 3242.67 658.322C3241.07 659.16 3239.38 659.882 3237.59 660.467C3224.23 664.832 3210.56 660.035 3206.15 649.734C3205.79 648.959 3205.5 648.147 3205.26 647.299C3203.38 640.509 3204.98 632.364 3209.96 627.241C3210.27 626.914 3210.58 626.529 3210.58 626.044C3210.58 625.638 3210.33 625.211 3210.1 624.911C3208.36 622.38 3202.32 618.068 3203.53 609.728C3204.4 603.735 3209.64 599.512 3214.53 599.765C3214.94 599.786 3215.36 599.813 3215.77 599.834C3217.89 599.96 3219.74 600.229 3221.48 600.303C3224.4 600.429 3227.02 600.002 3230.13 597.414C3231.18 596.539 3232.02 595.785 3233.44 595.543C3233.59 595.516 3233.96 595.385 3234.71 595.421C3235.47 595.464 3236.19 595.669 3236.84 596.102C3239.33 597.757 3239.68 601.774 3239.81 604.71C3239.88 606.386 3240.08 610.445 3240.16 611.605C3240.32 614.267 3241.02 614.642 3242.43 615.111C3243.23 615.374 3243.96 615.569 3245.05 615.875C3248.35 616.803 3250.31 617.741 3251.54 618.948C3252.27 619.702 3252.61 620.504 3252.72 621.268C3253.11 624.104 3250.52 627.61 3243.66 630.794C3236.16 634.273 3227.06 635.153 3220.77 634.457C3220.29 634.405 3218.58 634.21 3218.57 634.21C3213.54 633.535 3210.67 640.029 3213.69 644.484C3215.64 647.351 3220.94 649.218 3226.24 649.223C3238.39 649.223 3247.73 644.036 3251.2 639.555C3251.31 639.423 3251.32 639.407 3251.48 639.159C3251.65 638.901 3251.51 638.759 3251.3 638.906C3248.46 640.846 3235.85 648.559 3222.37 646.239C3222.37 646.239 3220.73 645.97 3219.23 645.385C3218.04 644.921 3215.56 643.777 3215.25 641.226C3226.14 644.594 3232.99 641.41 3232.99 641.41L3232.98 641.395ZM3194.93 592.549C3199.11 587.72 3204.25 583.518 3208.87 581.162C3209.02 581.083 3209.19 581.252 3209.11 581.41C3208.74 582.074 3208.04 583.492 3207.81 584.567C3207.77 584.736 3207.96 584.863 3208.1 584.762C3210.97 582.807 3215.96 580.714 3220.34 580.445C3220.53 580.434 3220.62 580.677 3220.47 580.788C3219.8 581.299 3219.08 582.005 3218.54 582.717C3218.45 582.838 3218.54 583.012 3218.69 583.012C3221.76 583.033 3226.1 584.109 3228.92 585.695C3229.11 585.801 3228.97 586.175 3228.76 586.122C3224.49 585.142 3217.49 584.399 3210.23 586.17C3203.75 587.751 3198.8 590.192 3195.19 592.823C3195 592.954 3194.79 592.712 3194.93 592.543L3194.93 592.549Z" fill="black"/>
<path d="M3430.55 627.56V672.89H3412.47V632.708C3412.47 624.107 3410.52 613.371 3398.97 613.371C3387.41 613.371 3383.02 623.981 3383.02 633.336V672.89H3365.06V629.067C3365.06 620.152 3360.86 613.308 3351.69 613.308C3340.89 613.308 3335.93 623.291 3335.93 632.897V672.765H3317.98V600.249H3335.05V611.864H3335.3C3338.44 604.769 3346.1 598.114 3357.72 598.114C3369.33 598.114 3376.18 603.765 3380.26 611.864C3385.09 603.137 3393.13 598.114 3403.99 598.114C3422.76 598.114 3430.61 612.617 3430.61 627.434L3430.55 627.56Z" fill="black"/>
<path d="M3493.21 663.599H3492.7C3489.12 670.003 3480.59 674.649 3470.29 674.649C3458.74 674.649 3443.29 669.061 3443.29 652.109C3443.29 630.512 3470.29 627.498 3492.83 627.498V625.677C3492.83 616.762 3485.29 612.367 3476.32 612.367C3468.66 612.367 3461.31 615.946 3456.67 620.717L3447.37 609.667C3455.47 602.133 3466.9 598.178 3477.82 598.178C3503.69 598.178 3509.97 614.188 3509.97 628.691V672.765H3493.14V663.536H3493.21V663.599ZM3492.95 639.804H3488.87C3477.45 639.804 3461.37 641.185 3461.37 651.858C3461.37 658.764 3467.84 660.962 3473.99 660.962C3486.36 660.962 3492.95 653.867 3492.95 642.378V639.804Z" fill="black"/>
<path d="M3528.18 600.312H3546.2V672.827H3528.18V600.312Z" fill="black"/>
<path d="M3537.53 588.635C3543.62 588.635 3548.52 583.675 3548.52 577.585C3548.52 571.495 3543.62 566.535 3537.53 566.535C3531.44 566.535 3526.54 571.495 3526.54 577.585C3526.54 583.675 3531.44 588.635 3537.53 588.635Z" fill="black"/>
<path d="M3764.37 588.948C3770.46 588.948 3775.36 583.988 3775.36 577.898C3775.36 571.808 3770.46 566.848 3764.37 566.848C3758.28 566.848 3753.38 571.808 3753.38 577.898C3753.38 583.988 3758.28 588.948 3764.37 588.948Z" fill="black"/>
<path d="M3564.21 558.31H3582.3V672.451H3564.21V558.31Z" fill="black"/>
<path d="M3650.04 620.466C3647.21 616.386 3641 613.372 3635.16 613.372C3621.91 613.372 3615.32 625.301 3615.32 636.665C3615.32 648.029 3622.1 659.958 3635.73 659.958C3641.31 659.958 3647.47 657.697 3650.92 653.428L3662.16 664.918C3656.13 671.447 3646.21 675.026 3635.54 675.026C3614.25 675.026 3596.49 660.837 3596.49 636.665C3596.49 612.493 3613.94 598.304 3635.1 598.304C3645.65 598.304 3656.63 602.51 3662.28 609.605L3649.98 620.466L3650.17 620.341L3650.04 620.466Z" fill="black"/>
<path d="M3737.75 672.89H3719.67V633.022C3719.67 624.421 3717.85 613.811 3706.3 613.811C3694.74 613.811 3689.34 623.668 3689.34 633.274V672.828H3671.33V558.561H3689.34V610.357H3689.6C3692.42 604.33 3700.39 598.115 3711.13 598.115C3729.9 598.115 3737.75 612.618 3737.75 627.435V672.828V672.89Z" fill="black"/>
<path d="M3755.39 600.312H3773.35V672.827H3755.39V600.312Z" fill="black"/>
<path d="M3904.25 627.56V672.89H3886.17V632.708C3886.17 624.107 3884.22 613.371 3872.67 613.371C3861.12 613.371 3856.73 623.981 3856.73 633.336V672.89H3838.71V629.067C3838.71 620.152 3834.5 613.308 3825.33 613.308C3814.53 613.308 3809.57 623.291 3809.57 632.897V672.765H3791.56V600.249H3808.63V611.864H3808.88C3812.02 604.769 3819.68 598.114 3831.3 598.114C3842.91 598.114 3849.76 603.765 3853.84 611.864C3858.67 603.137 3866.77 598.114 3877.57 598.114C3896.34 598.114 3904.19 612.617 3904.19 627.434L3904.25 627.56Z" fill="black"/>
<path d="M3939.54 600.312V610.421H3940.04C3943.62 604.645 3951.78 598.178 3964.97 598.178C3985.56 598.178 4000 614.816 4000 636.225C4000 657.634 3986.5 674.9 3964.59 674.9C3954.54 674.9 3945.38 670.38 3940.73 663.097H3940.48V708.992H3922.4V600.312H3939.54ZM3960.82 612.995C3947.57 612.995 3939.66 625.238 3939.66 636.539C3939.66 647.84 3947.64 659.832 3960.82 659.832C3974.82 659.832 3981.54 647.652 3981.54 636.288C3981.54 624.924 3974.76 612.995 3960.82 612.995Z" fill="black"/>
<path d="M178.746 616.26V601.882H191.303V581.038H208.945V601.882H226.964V616.26H208.945V649.661C208.945 656.128 210.452 660.711 218.363 660.711C220.749 660.711 223.951 660.209 225.96 659.204L226.588 673.268C223.448 674.461 218.614 675.214 214.659 675.214C195.635 675.214 191.303 663.536 191.303 649.787V616.26H178.746V616.26Z" fill="black"/>
<path d="M302.368 673.708H285.354V662.156H285.103C281.964 669.376 273.425 675.78 262.752 675.78C244.042 675.78 236.257 661.402 236.257 646.711V601.82H254.213V641.626C254.213 650.164 256.159 660.775 267.649 660.775C279.138 660.775 284.412 650.855 284.412 641.312V601.82H302.431V673.645L302.368 673.708Z" fill="black"/>
<path d="M337.716 601.817V613.746H337.967C341.86 605.522 349.52 599.683 358.937 599.683C360.318 599.683 362.076 599.808 363.269 600.185V616.697C360.883 616.069 359.377 615.944 357.681 615.944C341.546 615.944 338.407 630.007 338.407 635.218V673.705H320.388V601.88H337.716V601.817Z" fill="black"/>
<path d="M390.267 560.568V610.984H390.769C394.473 606.338 401.693 599.808 414.878 599.808C435.346 599.808 449.786 616.321 449.786 637.542C449.786 658.763 436.35 675.84 414.501 675.84C404.456 675.84 394.724 671.194 389.827 662.969H389.576V673.768H372.562V560.568H390.329H390.267ZM410.797 614.437C397.612 614.437 389.702 626.617 389.702 637.793C389.702 648.968 397.675 660.897 410.797 660.897C424.735 660.897 431.453 648.78 431.453 637.542C431.453 626.303 424.735 614.437 410.797 614.437Z" fill="black"/>
<path d="M498.82 599.809C520.543 599.809 537.934 614.94 537.934 637.542C537.934 660.144 520.543 675.84 498.82 675.84C477.096 675.84 459.705 660.081 459.705 637.542C459.705 615.002 477.096 599.809 498.82 599.809ZM498.82 660.897C513.072 660.897 519.664 648.78 519.664 637.542C519.664 626.303 513.072 614.437 498.82 614.437C484.568 614.437 477.975 626.241 477.975 637.542C477.975 648.843 484.568 660.897 498.82 660.897Z" fill="black"/>
<path d="M542.203 616.26V601.882H554.76V581.038H572.402V601.882H590.421V616.26H572.402V649.661C572.402 656.128 573.909 660.711 581.82 660.711C584.206 660.711 587.408 660.209 589.417 659.204L590.045 673.268C586.905 674.461 582.071 675.214 578.116 675.214C559.092 675.214 554.76 663.536 554.76 649.787V616.26H542.203V616.26Z" fill="black"/>
<path d="M646.488 664.539H645.986C642.407 670.88 633.868 675.463 623.635 675.463C612.082 675.463 596.7 669.875 596.7 653.112C596.7 631.702 623.635 628.752 646.111 628.752V626.994C646.111 618.141 638.64 613.809 629.599 613.809C622.002 613.809 614.594 617.388 610.01 622.034L600.718 611.109C608.818 603.638 620.181 599.683 631.106 599.683C656.847 599.683 663.126 615.567 663.126 629.882V673.58H646.362V664.476H646.425L646.488 664.539ZM646.237 640.995H642.156C630.729 640.995 614.719 642.376 614.719 652.924C614.719 659.767 621.186 661.902 627.276 661.902C639.582 661.902 646.174 654.87 646.174 643.506V640.995H646.237Z" fill="black"/>
<path d="M700.608 635.533L674.678 601.881H696.213L711.784 624.232L727.794 601.881H748.449L722.708 635.533L752.028 673.706H730.179L711.47 647.525L692.572 673.706H671.351L700.545 635.533H700.482H700.608Z" fill="black"/>
<path d="M79.5475 692.355C123.48 692.355 159.095 656.74 159.095 612.807C159.095 568.874 123.48 533.26 79.5475 533.26C35.6146 533.26 0 568.874 0 612.807C0 656.74 35.6146 692.355 79.5475 692.355Z" fill="#D52B1E"/>
<path d="M61.9054 641.814C52.6134 635.222 43.8864 628.19 35.4733 620.656C32.3969 627.248 29.76 634.28 27.123 641.375C40.3705 652.801 58.3895 665.609 70.758 673.081C86.5796 632.145 111.317 605.211 135.049 586.313C131.972 579.721 128.017 573.944 122.68 569.173C97.5668 588.51 76.848 613.185 61.9054 641.814V641.814Z" fill="white"/>
<path d="M1152.63 611.794C1147 604.834 1136.19 600.688 1125.83 600.688C1104.95 600.688 1087.77 615.199 1087.77 638.299C1087.77 661.991 1105.25 675.91 1126.27 675.91C1136.79 675.91 1146.56 672.356 1152.48 665.989L1141.38 654.735C1137.97 658.882 1131.9 661.103 1126.42 661.103C1112.95 661.103 1106.28 649.405 1106.28 638.299C1106.28 627.194 1112.8 615.496 1125.83 615.496C1131.6 615.496 1137.67 618.457 1140.49 622.455L1152.63 611.794Z" fill="black"/>
<path d="M1162.42 673.837H1180.18V635.782C1180.18 630.599 1183.29 616.68 1199.29 616.68C1200.92 616.68 1202.4 616.828 1204.77 617.421V601.132C1203.58 600.836 1201.8 600.688 1200.47 600.688C1191.14 600.688 1183.59 606.463 1179.74 614.607H1179.44V602.761H1162.42V673.837Z" fill="black"/>
<path d="M1225.57 631.192C1226.31 621.271 1234.75 614.015 1245.26 614.015C1256.81 614.015 1261.99 622.011 1261.99 631.192H1225.57ZM1279.76 639.188C1279.76 613.571 1265.25 600.688 1245.41 600.688C1223.94 600.688 1207.8 615.792 1207.8 638.743C1207.8 661.843 1224.09 675.91 1246 675.91C1259.48 675.91 1269.55 671.172 1276.51 661.695L1264.66 652.218C1260.66 657.845 1254.74 661.399 1245.85 661.399C1235.49 661.399 1226.31 653.995 1225.57 643.926H1279.61C1279.76 642.297 1279.76 640.816 1279.76 639.188Z" fill="black"/>
<path d="M1365.62 561.893H1347.85V611.794H1347.41C1343.71 607.203 1336.6 600.688 1323.57 600.688C1303.28 600.688 1289.07 616.976 1289.07 638.003C1289.07 658.733 1302.39 675.91 1324.01 675.91C1333.93 675.91 1343.56 671.32 1348.44 663.176H1348.74V673.837H1365.62V561.893ZM1307.13 638.003C1307.13 626.897 1313.79 615.199 1327.57 615.199C1340.6 615.199 1348.44 627.194 1348.44 638.299C1348.44 649.405 1340.6 661.103 1327.57 661.103C1313.79 661.103 1307.13 649.109 1307.13 638.003Z" fill="black"/>
<path d="M1383.89 673.837H1401.66V602.761H1383.89V673.837ZM1381.38 578.625C1381.38 584.252 1386.11 589.286 1392.63 589.286C1399.14 589.286 1404.18 584.696 1404.18 578.625C1404.18 572.554 1399.14 567.964 1392.63 567.964C1386.11 567.964 1381.38 572.998 1381.38 578.625Z" fill="black"/>
<path d="M1427.25 616.976V650.145C1427.25 663.768 1431.54 675.318 1450.34 675.318C1454.34 675.318 1459.08 674.577 1462.19 673.393L1461.6 659.474C1459.53 660.51 1456.42 660.955 1454.05 660.955C1446.2 660.955 1444.72 656.364 1444.72 649.997V616.976H1462.49V602.761H1444.72V582.179H1427.25V602.761H1414.81V616.976H1427.25Z" fill="black"/>
<path d="M1475.64 673.837H1493.41V637.411H1493.86L1521.99 673.837H1545.53L1512.81 634.893L1543.61 602.761H1520.81L1493.86 632.672H1493.41V561.893H1475.64V673.837Z" fill="black"/>
<path d="M1597.2 673.837H1613.78V630.599C1613.78 616.384 1607.56 600.688 1582.1 600.688C1571.29 600.688 1560.03 604.538 1552.04 611.942L1561.22 622.751C1565.81 618.161 1573.06 614.607 1580.61 614.607C1589.5 614.607 1596.9 618.901 1596.9 627.638V629.415C1574.69 629.415 1548.04 632.376 1548.04 653.551C1548.04 670.135 1563.29 675.614 1574.69 675.614C1584.76 675.614 1593.2 671.024 1596.75 664.804H1597.2V673.837ZM1596.9 643.926C1596.9 655.18 1590.39 662.139 1578.25 662.139C1572.17 662.139 1565.81 660.066 1565.81 653.255C1565.81 642.741 1581.65 641.409 1592.9 641.409H1596.9V643.926Z" fill="black"/>
<path d="M1629.07 673.837H1646.84V635.782C1646.84 630.599 1649.95 616.68 1665.94 616.68C1667.57 616.68 1669.05 616.828 1671.42 617.421V601.132C1670.23 600.836 1668.46 600.688 1667.12 600.688C1657.79 600.688 1650.24 606.463 1646.39 614.607H1646.1V602.761H1629.07V673.837Z" fill="black"/>
<path d="M1769.66 600.688C1759 600.688 1751 605.575 1746.26 614.163C1742.26 606.167 1735.01 600.688 1724.05 600.688C1712.65 600.688 1705.1 607.203 1701.99 614.163H1701.69V602.761H1684.81V673.837H1702.58V634.745C1702.58 625.269 1707.47 615.496 1718.13 615.496C1727.16 615.496 1731.31 622.159 1731.31 630.895V673.837H1749.08V635.041C1749.08 625.861 1753.67 615.496 1764.77 615.496C1776.17 615.496 1778.1 626.009 1778.1 634.449V673.837H1795.87V629.415C1795.87 614.903 1788.17 600.688 1769.66 600.688Z" fill="black"/>
<path d="M1855.25 673.837H1871.84V630.599C1871.84 616.384 1865.62 600.688 1840.15 600.688C1829.34 600.688 1818.09 604.538 1810.09 611.942L1819.27 622.751C1823.86 618.161 1831.12 614.607 1838.67 614.607C1847.55 614.607 1854.96 618.901 1854.96 627.638V629.415C1832.75 629.415 1806.09 632.376 1806.09 653.551C1806.09 670.135 1821.35 675.614 1832.75 675.614C1842.82 675.614 1851.26 671.024 1854.81 664.804H1855.25V673.837ZM1854.96 643.926C1854.96 655.18 1848.44 662.139 1836.3 662.139C1830.23 662.139 1823.86 660.066 1823.86 653.255C1823.86 642.741 1839.71 641.409 1850.96 641.409H1854.96V643.926Z" fill="black"/>
<path d="M988.545 692.09C1032.48 692.09 1068.09 656.476 1068.09 612.545C1068.09 568.613 1032.48 533 988.545 533C944.613 533 909 568.613 909 612.545C909 656.476 944.613 692.09 988.545 692.09Z" fill="#008600"/>
<path d="M948.427 620.52C948.427 606.833 955.019 599.802 965.63 599.802C973.54 599.802 978.437 602.878 980.195 603.757C981.513 602.439 982.392 600.241 982.392 598.044C982.392 594.089 977.998 590.133 965.19 590.133C950.185 590.133 937.44 600.681 937.44 620.52C937.44 640.359 948.93 650.906 963.872 650.906C973.101 650.906 980.195 647.83 982.392 646.951V635.964C980.195 637.722 972.724 641.238 965.63 641.238C955.961 641.238 948.427 634.206 948.427 620.52ZM1021.57 620.08C1028.16 612.17 1034.38 602.878 1038.77 591.012L1029.1 587.496C1022.95 604.259 1013.66 615.686 1002.67 624.977V567.218H992.124V649.651H1002.67V637.283C1006.63 634.206 1010.14 631.13 1014.16 627.614L1023.83 644.377C1026.03 648.332 1029.54 650.53 1034.38 650.53C1037.01 650.53 1038.77 649.651 1039.21 649.211L1021.57 620.143V620.08Z" fill="white"/>
</svg>
