<?xml version="1.0" encoding="utf-8"?>
<!-- Generator: Adobe Illustrator 19.2.1, SVG Export Plug-In . SVG Version: 6.00 Build 0)  -->
<svg version="1.1" id="layer" xmlns="http://www.w3.org/2000/svg" xmlns:xlink="http://www.w3.org/1999/xlink" x="0px" y="0px"
	 viewBox="0 0 652 652" style="enable-background:new 0 0 652 652;" xml:space="preserve">
<style type="text/css">
	.st0{fill:#BF0000;}
	.st1{fill:#FFFFFF;}
</style>
<g id="R-ball">
	<circle id="Red_Ball" class="st0" cx="77.4" cy="267.6" r="50.6"/>
	<path id="White_R" class="st1" d="M70.9,295v-17h7.4l12.8,17h13.1L89,274.7c8.3-5.9,10.4-17.6,4.5-26.2c-4.2-5.1-9.8-8-16.1-8h-17
		V295H70.9z M70.9,250.9h6.5c4.8,0,8.3,3.9,8.3,8.3s-3.9,8.3-8.3,8.3h-6.5C70.9,267.6,70.9,250.9,70.9,250.9z"/>
</g>
<g id="Rakuten">
	<path id="Black_akuten" d="M469.8,292.9c-1.8,3.9-6.2,5.9-10.4,4.2c-3.3-1.5-5.1-4.8-4.8-8v-31.5h25.6v-17.3h-25.6v-18.1h-17.3
		v18.1h-12.2v17.6h12.2v31.5c-0.3,14,10.4,25.6,24.4,25.9c11.3,0.3,21.4-6.8,24.7-17.6L469.8,292.9z M255.9,240.2v3.3
		c-5.1-3.3-11-5.1-17-5.1c-18.7,0-34.2,17.3-34.2,38.4s15.5,38.1,34.2,38.1c5.9,0,11.9-1.8,17-5.1v3.3h17.3v-72.9H255.9z
		 M238.9,297.6c-9.2,0-17-9.5-17-20.8s7.4-20.8,17-20.8s17,9.5,17,20.8S248.5,297.6,238.9,297.6z M401.7,240.2v42.8
		c-0.3,8-7.1,14.3-15.2,14c-7.4-0.3-13.7-6.2-14-14v-42.8h-17.3v42.8c0,17.6,14.3,31.8,31.8,31.8c5.1,0,10.1-1.2,14.6-3.6v1.8h17.3
		v-72.9H401.7z M595,238.4c-5.1,0-10.1,1.2-14.6,3.6v-1.8h-17.3v72.9h17.3v-42.8c-0.3-8,5.9-14.9,14-15.2s14.9,5.9,15.2,14v44h17.3
		v-42.8C626.8,252.7,612.6,238.4,595,238.4L595,238.4z M556.3,276.8c0-21.1-15.2-38.4-34.2-38.4s-34.2,17-34.2,38.4
		c0,22.6,19.3,38.4,36.6,38.4c12.2,0,23.5-6.2,30-16.4l-15.2-8.6c-12.8,15.8-30.6,5.1-32.4-8.3h48.8
		C556.1,280.1,556.3,278.6,556.3,276.8z M536.7,266.4h-29.2C510.8,252.1,533.7,249.2,536.7,266.4z M317.5,274.4l34.2-34.2h-24.4
		l-26.5,26.5v-50.6h-17.3v97h17.3v-30.9l30.9,30.9h24.4C356.4,313.1,317.5,274.4,317.5,274.4z"/>
	<path id="Black_R" d="M155.4,313.1v-28.3h12.2l21.1,28.3h21.7l-25.6-34.2c14.3-10.1,17.6-29.4,7.7-43.7
		c-5.9-8.3-15.5-13.1-25.9-13.1h-28.6v91H155.4z M155.4,239.3h11.3c7.7,0,14,6.2,14,14s-6.2,14-14,14h-11.3
		C155.4,267.3,155.4,239.3,155.4,239.3z"/>
</g>
<g id="Kobo">
	<path id="Red_obo" class="st0" d="M232.1,423.8c12.2,0,14-12.5,14-26.2s-1.8-26.2-14-26.2c-12.2,0-14,12.5-14,26.2
		S219.9,423.8,232.1,423.8 M200,397.6c0-23.8,11.3-38.1,32.1-38.1s32.1,14.3,32.1,38.1c0,23.8-11,38.1-32.1,38.1
		S200,421.4,200,397.6 M304.1,423.8c11,0,12.8-14.3,12.8-26.2c0-13.1-1.5-27.4-12.8-27.4c-10.1,0-13.4,14.9-13.4,27.4
		C290.7,415.7,293.4,423.8,304.1,423.8 M290.7,369.9c4.2-6.5,11.3-10.7,19-10.4c17.6,0,25,14.9,25,38.1c0,20.2-7.1,38.1-30.6,38.1
		c-19,0-30.3-11-30.3-32.7v-74.7h17C290.7,328.3,290.7,369.9,290.7,369.9z M375.8,423.8c12.2,0,14-12.5,14-26.2s-1.8-26.2-14-26.2
		s-14,12.5-14,26.2S363.3,423.8,375.8,423.8 M343.4,397.6c0-23.8,11.3-38.1,32.1-38.1c20.8,0,32.4,14.3,32.4,38.1
		c0,23.8-11.3,38.1-32.1,38.1S343.4,421.4,343.4,397.6"/>
	<path id="Red_K" class="st0" d="M138.1,328.3h17V389l23.5-28h20.2l-27.1,31.5l29.4,41.3h-20.2L155.4,397h-0.3v36.9h-17
		C138.1,433.9,138.1,328.3,138.1,328.3z"/>
</g>
</svg>
