<svg version="1.1" id="Layer_1" xmlns:x="ns_extend;" xmlns:i="ns_ai;" xmlns:graph="ns_graphs;" xmlns="http://www.w3.org/2000/svg" xmlns:xlink="http://www.w3.org/1999/xlink" x="0px" y="0px" viewBox="0 0 218.3 72" style="enable-background:new 0 0 218.3 72;" xml:space="preserve">
 <style type="text/css">
  .st0{fill:#418154;}
	.st1{fill:#6F7271;}
 </style>
 <metadata>
  <sfw xmlns="ns_sfw;">
   <slices>
   </slices>
   <sliceSourceBounds bottomLeftOrigin="true" height="72" width="218.3" x="41.2" y="-219.6">
   </sliceSourceBounds>
  </sfw>
 </metadata>
 <g>
  <polygon class="st0" points="0,0 0,71 42.7,71 25.3,22.5 40.4,22.5 50.7,54.9 61.1,22.5 71,22.5 71,0 	">
  </polygon>
  <path class="st1" d="M104,42c-0.7-6.8-3.8-10.1-9.3-10.1c-4.6,0-8.5,3-9.6,10.1H104z M70.4,46.8c0-18.9,14.4-25.3,24.4-25.3
		s22.3,5,22.3,27.1v2.2H85c0.7,8,5.2,11.1,11.3,11.1c5.7,0,11.1-2.8,14.4-5.8l5.6,8.7c-5.6,4.8-12.7,7.3-21.1,7.3
		C82.5,72,70.4,65.5,70.4,46.8z">
  </path>
  <path class="st1" d="M121.6,71V22.4h14.7v7.7c2.9-3.8,8.3-8.6,16.8-8.6c8.2,0,14.1,4.1,14.1,14.1V71h-14.6V40.2
		c0-4.4-1.6-6.6-5.7-6.6c-3.9,0-7.3,2-10.6,4.8V71H121.6z">
  </path>
  <path class="st1" d="M202.6,56.5v-9c-11.6,1.2-16.5,4.1-16.5,8.6c0,3.1,2.2,4.6,5.4,4.6C196.6,60.7,200.2,59,202.6,56.5z
		 M171.8,58.6c0-11.2,9.5-17.4,30.8-19.1v-1.2c0-3.6-1.8-5.8-6.6-5.8c-6.2,0-11.5,2.6-15.9,6l-6.2-8.4c4.8-4.4,12.1-8.6,24.2-8.6
		c13.3,0,18.8,6.6,18.8,19v18.7c0,5.8,0.4,9.4,1.4,11.8h-14.6c-0.7-2.3-1.1-4.7-1.1-7.1c-4.5,5-9.7,7.8-16.9,7.8
		C178.2,71.7,171.8,66.9,171.8,58.6z">
  </path>
 </g>
</svg>