<svg width="38" height="54" viewBox="0 0 38 54" fill="none" xmlns="http://www.w3.org/2000/svg">
<path d="M2.21931 30.9226C0.88991 29.7846 0.53656 27.9341 1.58 26.5293C3.44516 24.0181 7.28194 19.6906 14.6986 14C22.5988 7.93847 29.6438 3.84527 33.6123 1.7204C35.0323 0.960057 36.6261 2.16133 36.3514 3.74854L32.2168 27.6459C32.1763 27.8801 32.1778 28.1196 32.2213 28.3532L36.2186 49.8065C36.5291 51.4727 34.7588 52.7409 33.2845 51.9047C28.3838 49.1248 19.8929 44.2494 15.7123 41.5C11.4437 38.6927 5.42757 33.669 2.21931 30.9226Z" fill="#0B8896"/>
<circle cx="11.5" cy="25.5" r="2" fill="white"/>
<path d="M28.0472 29.7478C27.5176 29.362 27.496 28.5796 28.0035 28.1652L35.9484 21.6757C36.6624 21.0926 37.7181 21.704 37.5676 22.6134L36.5421 28.8117C36.5232 28.9262 36.5243 29.0432 36.5455 29.1573L37.5419 34.5301C37.7068 35.4193 36.7007 36.0532 35.9698 35.5207L28.0472 29.7478Z" fill="#FAB842"/>
<mask id="mask0_2_87" style="mask-type:alpha" maskUnits="userSpaceOnUse" x="5" y="32" width="10" height="5">
<path d="M6.5 35.5C8 35.6667 11.5 35.4 13.5 33" stroke="white" stroke-width="2" stroke-linecap="round"/>
</mask>
<g mask="url(#mask0_2_87)">
<path d="M2.59324 31.3218C1.09668 29.9986 0.853181 27.7845 2.10865 26.2307C4.49055 23.2828 8.79115 18.4402 14.5 14C20.5588 9.28761 28.4303 4.57523 32.9282 1.99848C34.3738 1.17026 36.0906 2.3986 35.8103 4.04096L31.7764 27.6755C31.7397 27.8904 31.7384 28.1098 31.7725 28.3251L35.2987 50.5751C35.5695 52.2836 33.696 53.5095 32.244 52.5691C27.0681 49.2166 17.9872 43.3248 14.5 41C11.1474 38.765 5.77173 34.1321 2.59324 31.3218Z" fill="white"/>
</g>
</svg>
